<svg width="132" height="34" viewBox="0 0 132 34" fill="none" xmlns="http://www.w3.org/2000/svg">
<path d="M9.04267 16L12.0293 1.06667H19.944C21.7218 1.06667 23.0587 1.37955 23.9547 2.00533C24.8507 2.61689 25.2987 3.49155 25.2987 4.62933C25.2987 5.55378 25.0284 6.336 24.488 6.976C23.9618 7.616 23.2293 8.10667 22.2907 8.448C21.3662 8.77511 20.2996 8.93867 19.0907 8.93867L19.7307 7.78667C21.2524 7.78667 22.4471 8.09244 23.3147 8.704C24.1964 9.30133 24.6373 10.1476 24.6373 11.2427C24.6373 12.3378 24.3173 13.2409 23.6773 13.952C23.0516 14.6489 22.2124 15.168 21.16 15.5093C20.1076 15.8364 18.9413 16 17.6613 16H9.04267ZM14.696 12.48H17.9387C18.4364 12.48 18.8418 12.3662 19.1547 12.1387C19.4818 11.9111 19.6453 11.5698 19.6453 11.1147C19.6453 10.7876 19.5173 10.5458 19.2613 10.3893C19.0196 10.2187 18.7351 10.1333 18.408 10.1333H14.824L15.4853 6.80533H18.3867C18.7707 6.80533 19.0836 6.75555 19.3253 6.656C19.5813 6.54222 19.7662 6.39289 19.88 6.208C19.9938 6.00889 20.0507 5.77422 20.0507 5.504C20.0507 5.19111 19.9298 4.96355 19.688 4.82133C19.4604 4.66489 19.1404 4.58667 18.728 4.58667H16.2747L14.696 12.48ZM32.028 6.61333H38.684L37.9587 10.24H31.3027L32.028 6.61333ZM31.2387 12.2027H38.7267L37.9587 16H25.5427L28.5293 1.06667H40.668L39.9 4.864H32.7107L31.2387 12.2027ZM39.8968 16L42.8835 1.06667H47.0222L52.6328 10.1547H50.8835L52.6968 1.06667H57.6035L54.6168 16H50.4782L44.8675 6.912H46.6168L44.8035 16H39.8968ZM61.1813 16.3413C59.9298 16.3413 58.8489 16.1493 57.9387 15.7653C57.0427 15.3813 56.3173 14.8053 55.7627 14.0373L58.984 10.9867C59.3111 11.456 59.6596 11.8116 60.0293 12.0533C60.4133 12.2809 60.8258 12.3947 61.2667 12.3947C61.7502 12.3947 62.1413 12.2524 62.44 11.968C62.7529 11.6836 62.9591 11.2782 63.0587 10.752L64.232 4.864H59.1547L59.9227 1.06667H69.9707L68.0933 10.4533C67.8089 11.8898 67.368 13.0418 66.7707 13.9093C66.1733 14.7627 65.4053 15.3813 64.4667 15.7653C63.5422 16.1493 62.4471 16.3413 61.1813 16.3413ZM67.3588 16L76.8735 1.06667H81.8228L85.3642 16H80.3508L77.9402 3.392H79.9028L72.6708 16H67.3588ZM71.7535 13.3973L73.7588 9.77067H80.6282L81.1828 13.3973H71.7535ZM86.1677 16L89.1543 1.06667H93.2503L97.2397 10.816H95.0637L102.744 1.06667H107.032L104.088 16H99.501L101.058 7.97867L101.784 7.936L96.621 14.656H94.4023L91.501 7.91467L92.3543 7.97867L90.7543 16H86.1677ZM106.522 16L109.509 1.06667H114.543L111.557 16H106.522ZM113.98 16L116.967 1.06667H121.106L126.716 10.1547H124.967L126.78 1.06667H131.687L128.7 16H124.562L118.951 6.912H120.7L118.887 16H113.98Z" fill="white"/>
<path d="M25.0427 33L28.0293 18.0667H33.064L30.0773 33H25.0427ZM32.501 33L35.4877 18.0667H39.6263L45.237 27.1547H43.4877L45.301 18.0667H50.2077L47.221 33H43.0823L37.4717 23.912H39.221L37.4077 33H32.501ZM55.5775 33.3413C54.6957 33.3413 53.8495 33.2773 53.0388 33.1493C52.2282 33.0213 51.4886 32.8436 50.8202 32.616C50.1659 32.3742 49.5971 32.1111 49.1135 31.8267L51.0548 28.1147C51.6095 28.4276 52.1642 28.6907 52.7188 28.904C53.2877 29.1031 53.8495 29.2524 54.4042 29.352C54.9731 29.4516 55.5348 29.5013 56.0895 29.5013C56.5304 29.5013 56.8931 29.4658 57.1775 29.3947C57.4762 29.3236 57.6966 29.224 57.8388 29.096C57.9953 28.9538 58.0735 28.7973 58.0735 28.6267C58.0735 28.3991 57.9455 28.2142 57.6895 28.072C57.4335 27.9298 57.0922 27.8018 56.6655 27.688C56.2531 27.5742 55.7908 27.4604 55.2788 27.3467C54.7811 27.2187 54.2762 27.0622 53.7642 26.8773C53.2522 26.6782 52.7828 26.4293 52.3562 26.1307C51.9437 25.832 51.6095 25.4551 51.3535 25C51.0975 24.5449 50.9695 23.9902 50.9695 23.336C50.9695 22.1982 51.2682 21.2098 51.8655 20.3707C52.4771 19.5316 53.3446 18.8844 54.4682 18.4293C55.6059 17.96 56.9571 17.7253 58.5215 17.7253C59.6308 17.7253 60.6619 17.8391 61.6148 18.0667C62.5819 18.28 63.4139 18.5929 64.1108 19.0053L62.2975 22.6747C61.7002 22.3049 61.0459 22.0276 60.3348 21.8427C59.6379 21.6578 58.9268 21.5653 58.2015 21.5653C57.7179 21.5653 57.3126 21.6151 56.9855 21.7147C56.6584 21.8 56.4095 21.9209 56.2388 22.0773C56.0824 22.2338 56.0042 22.3973 56.0042 22.568C56.0042 22.7956 56.1322 22.9876 56.3882 23.144C56.6442 23.2862 56.9855 23.4142 57.4122 23.528C57.8388 23.6276 58.3011 23.7413 58.7988 23.8693C59.3108 23.9831 59.8157 24.1324 60.3135 24.3173C60.8255 24.488 61.2948 24.7227 61.7215 25.0213C62.1482 25.3058 62.4895 25.6756 62.7455 26.1307C63.0015 26.5716 63.1295 27.1191 63.1295 27.7733C63.1295 28.8827 62.8237 29.8569 62.2122 30.696C61.6006 31.5209 60.7259 32.168 59.5882 32.6373C58.4646 33.1067 57.1277 33.3413 55.5775 33.3413ZM70.0677 24.424H76.6383L75.8703 28.2213H69.321L70.0677 24.424ZM68.7023 33H63.6677L66.6543 18.0667H78.793L78.025 21.864H70.921L68.7023 33ZM77.3968 33L80.3835 18.0667H87.0822C89.0591 18.0667 90.5879 18.5004 91.6688 19.368C92.7497 20.2213 93.2902 21.4231 93.2902 22.9733C93.2902 24.2249 92.9773 25.32 92.3515 26.2587C91.7399 27.1973 90.8653 27.9298 89.7275 28.456C88.6039 28.9822 87.2742 29.2453 85.7382 29.2453H80.9168L83.6048 27.1333L82.4315 33H77.3968ZM86.5275 33L83.4555 27.56H88.6395L91.7542 33H86.5275ZM83.4768 27.7307L81.7062 25.448H85.9942C86.6911 25.448 87.2315 25.2773 87.6155 24.936C87.9995 24.5804 88.1915 24.0898 88.1915 23.464C88.1915 22.9236 88.0208 22.5396 87.6795 22.312C87.3524 22.0702 86.8973 21.9493 86.3142 21.9493H82.4102L85.0982 19.6027L83.4768 27.7307ZM91.6713 33L101.186 18.0667H106.135L109.677 33H104.663L102.253 20.392H104.215L96.9833 33H91.6713ZM96.066 30.3973L98.0713 26.7707H104.941L105.495 30.3973H96.066ZM110.48 33L113.467 18.0667H117.606L123.216 27.1547H121.467L123.28 18.0667H128.187L125.2 33H121.062L115.451 23.912H117.2L115.387 33H110.48Z" fill="white"/>
<rect x="23" y="30" width="22" height="2" rx="0.999999" transform="rotate(-180 23 30)" fill="#2D5285"/>
<rect x="24" y="26" width="13" height="2" rx="0.999999" transform="rotate(-180 24 26)" fill="#F8D771"/>
<rect x="25" y="22" width="21" height="2" rx="0.999999" transform="rotate(-180 25 22)" fill="#F2F2F2"/>
</svg>
