<svg width="66" height="87" viewBox="0 0 66 87" fill="none" xmlns="http://www.w3.org/2000/svg">
<path d="M32.9998 47.2852C24.937 47.2852 18.3777 53.8445 18.3777 61.9073C18.3777 69.97 24.937 76.5294 32.9998 76.5294C41.0626 76.5294 47.6219 69.97 47.6219 61.9073C47.6219 53.8445 41.0626 47.2852 32.9998 47.2852ZM32.9998 72.8298C26.9771 72.8298 22.0773 67.93 22.0773 61.9073C22.0773 55.8845 26.9771 50.9847 32.9998 50.9847C39.0225 50.9847 43.9223 55.8845 43.9223 61.9073C43.9223 67.93 39.0225 72.8298 32.9998 72.8298Z" fill="#FFD80D"/>
<path d="M16.7956 0.00105702C16.0441 0.0052851 15.2969 0.177051 14.6009 0.515121L3.65157 5.83281C1.12406 7.06019 0.0663378 10.1152 1.29371 12.6427L16.4982 43.9511C11.6463 48.4136 8.60036 54.8111 8.60036 61.9072C8.60036 75.3611 19.546 86.3067 32.9999 86.3067C46.4538 86.3067 57.3994 75.3611 57.3994 61.9072C57.3994 54.8111 54.3535 48.4134 49.5014 43.9511L64.7059 12.6427C65.9333 10.1152 64.8756 7.06036 62.3481 5.83299L51.3989 0.515121C50.7008 0.17617 49.9512 0.00422808 49.1975 0.00105702V0H16.7956V0.00105702ZM28.5204 17.5124H37.4794L32.9999 26.7363L28.5204 17.5124ZM39.2761 13.8128H26.7239L21.8122 3.69957H44.1874L39.2761 13.8128ZM4.62174 11.0267C4.28543 10.3341 4.57523 9.49715 5.26793 9.16084L16.2172 3.84297C16.5529 3.68001 16.9316 3.65764 17.284 3.77955C17.6363 3.90146 17.9201 4.15356 18.0831 4.48916L34.1314 37.535C33.7564 37.5177 33.3794 37.5078 33.0001 37.5078C28.0006 37.5078 23.3481 39.0202 19.4745 41.6101L4.62174 11.0267ZM53.6999 61.9072C53.6999 73.3212 44.414 82.6072 32.9999 82.6072C21.5859 82.6072 12.2999 73.3212 12.2999 61.9072C12.2999 50.4933 21.5859 41.2072 32.9999 41.2072C44.414 41.2072 53.6999 50.4933 53.6999 61.9072ZM61.3781 11.0267L46.5255 41.6101C44.1275 40.0068 41.4314 38.8164 38.5389 38.1424L35.0562 30.9709L47.9166 4.48899C48.0795 4.15356 48.3633 3.90146 48.7157 3.77955C49.0678 3.65764 49.4468 3.68001 49.7824 3.84297L60.7321 9.16084C61.4246 9.49715 61.7144 10.3341 61.3781 11.0267Z" fill="#FFD80D"/>
</svg>
