<svg width="501" height="130" viewBox="0 0 501 130" fill="none" xmlns="http://www.w3.org/2000/svg">
<path d="M34.3759 62L45.7298 5.23053H75.8177C82.5759 5.23053 87.6581 6.41998 91.0643 8.7989C94.4705 11.1237 96.1736 14.4488 96.1736 18.7741C96.1736 22.2884 95.1463 25.262 93.0918 27.695C91.0913 30.128 88.3069 31.9933 84.7386 33.2909C81.2243 34.5344 77.1693 35.1561 72.5737 35.1561L75.0067 30.7768C80.7917 30.7768 85.3333 31.9392 88.6313 34.2641C91.9834 36.5348 93.6595 39.7518 93.6595 43.9149C93.6595 48.078 92.443 51.5112 90.01 54.2145C87.6311 56.8637 84.4412 58.8371 80.4403 60.1347C76.4394 61.3782 72.006 62 67.14 62H34.3759ZM55.8672 48.6186H68.1943C70.0866 48.6186 71.6275 48.1861 72.817 47.321C74.0605 46.456 74.6823 45.1584 74.6823 43.4283C74.6823 42.1848 74.1957 41.2656 73.2225 40.6709C72.3034 40.0221 71.222 39.6977 69.9785 39.6977H56.3538L58.8679 27.0462H69.8974C71.3572 27.0462 72.5467 26.857 73.4658 26.4785C74.439 26.046 75.1418 25.4783 75.5744 24.7754C76.0069 24.0185 76.2232 23.1264 76.2232 22.0992C76.2232 20.9097 75.7636 20.0447 74.8445 19.504C73.9794 18.9093 72.7629 18.6119 71.195 18.6119H61.8686L55.8672 48.6186ZM121.755 26.3163H147.058L144.301 40.1032H118.998L121.755 26.3163ZM118.755 47.5643H147.22L144.301 62H97.1011L108.455 5.23053H154.601L151.681 19.6662H124.35L118.755 47.5643ZM151.669 62L163.023 5.23053H178.756L200.085 39.7788H193.435L200.328 5.23053H218.981L207.627 62H191.894L170.565 27.4517H177.215L170.322 62H151.669ZM232.582 63.2976C227.825 63.2976 223.716 62.5677 220.255 61.1079C216.849 59.6481 214.092 57.4584 211.983 54.5389L224.229 42.9417C225.473 44.7259 226.797 46.0775 228.203 46.9966C229.663 47.8617 231.231 48.2942 232.907 48.2942C234.745 48.2942 236.232 47.7536 237.367 46.6722C238.557 45.5909 239.341 44.05 239.719 42.0496L244.18 19.6662H224.878L227.798 5.23053H265.995L258.859 40.9142C257.777 46.3749 256.101 50.7542 253.83 54.0523C251.56 57.2962 248.64 59.6481 245.072 61.1079C241.557 62.5677 237.394 63.2976 232.582 63.2976ZM256.066 62L292.237 5.23053H311.052L324.514 62H305.456L296.292 14.0703H303.753L276.26 62H256.066ZM272.773 52.1059L280.396 38.319H306.51L308.619 52.1059H272.773ZM327.569 62L338.923 5.23053H354.494L369.659 42.2929H361.387L390.583 5.23053H406.884L395.692 62H378.256L384.176 31.5067L386.933 31.3445L367.307 56.8907H358.873L347.844 31.2634L351.088 31.5067L345.005 62H327.569ZM404.946 62L416.3 5.23053H435.439L424.085 62H404.946ZM433.299 62L444.653 5.23053H460.386L481.715 39.7788H475.065L481.958 5.23053H500.611L489.257 62H473.524L452.195 27.4517H458.845L451.952 62H433.299Z" fill="#0C112E"/>
<path d="M95.2004 126.626L106.554 69.8565H125.694L114.34 126.626H95.2004ZM123.553 126.626L134.907 69.8565H150.641L171.97 104.405H165.32L172.213 69.8565H190.866L179.512 126.626H163.779L142.45 92.0777H149.1L142.206 126.626H123.553ZM211.279 127.924C207.927 127.924 204.71 127.68 201.629 127.194C198.547 126.707 195.735 126.031 193.194 125.166C190.707 124.247 188.545 123.247 186.706 122.165L194.086 108.054C196.195 109.244 198.303 110.244 200.412 111.055C202.575 111.812 204.71 112.38 206.819 112.758C208.982 113.136 211.117 113.326 213.226 113.326C214.902 113.326 216.28 113.191 217.362 112.92C218.497 112.65 219.335 112.271 219.876 111.785C220.471 111.244 220.768 110.649 220.768 110.001C220.768 109.136 220.281 108.433 219.308 107.892C218.335 107.351 217.037 106.865 215.415 106.432C213.848 106 212.09 105.567 210.144 105.135C208.252 104.648 206.332 104.053 204.386 103.35C202.44 102.594 200.655 101.647 199.033 100.512C197.465 99.3766 196.195 97.9439 195.222 96.2137C194.249 94.4836 193.762 92.375 193.762 89.888C193.762 85.5627 194.897 81.8051 197.168 78.6152C199.493 75.4253 202.791 72.9653 207.062 71.2352C211.388 69.451 216.524 68.5589 222.471 68.5589C226.688 68.5589 230.608 68.9914 234.23 69.8565C237.907 70.6675 241.07 71.8569 243.719 73.4248L236.826 87.3739C234.555 85.9682 232.068 84.9139 229.364 84.211C226.715 83.5082 224.012 83.1568 221.255 83.1568C219.416 83.1568 217.875 83.346 216.632 83.7245C215.388 84.0488 214.442 84.5084 213.793 85.1031C213.199 85.6979 212.901 86.3196 212.901 86.9684C212.901 87.8335 213.388 88.5634 214.361 89.1581C215.334 89.6988 216.632 90.1854 218.254 90.6179C219.876 90.9964 221.633 91.4289 223.525 91.9155C225.472 92.348 227.391 92.9157 229.283 93.6186C231.23 94.2674 233.014 95.1594 234.636 96.2948C236.258 97.3762 237.556 98.7819 238.529 100.512C239.502 102.188 239.988 104.27 239.988 106.757C239.988 110.974 238.826 114.677 236.501 117.867C234.176 121.003 230.851 123.463 226.526 125.247C222.255 127.031 217.173 127.924 211.279 127.924ZM266.364 94.0241H291.343L288.423 108.46H263.526L266.364 94.0241ZM261.174 126.626H242.034L253.388 69.8565H299.534L296.614 84.2921H269.608L261.174 126.626ZM294.226 126.626L305.58 69.8565H331.045C338.56 69.8565 344.373 71.5055 348.482 74.8035C352.591 78.0475 354.645 82.6161 354.645 88.5093C354.645 93.2671 353.456 97.4302 351.077 100.999C348.752 104.567 345.427 107.351 341.102 109.352C336.83 111.352 331.775 112.352 325.936 112.352H307.608L317.826 104.324L313.366 126.626H294.226ZM328.937 126.626L317.258 105.946H336.965L348.806 126.626H328.937ZM317.339 106.594L310.608 97.9168H326.909C329.558 97.9168 331.613 97.268 333.073 95.9704C334.532 94.6188 335.262 92.7535 335.262 90.3746C335.262 88.3201 334.614 86.8603 333.316 85.9952C332.072 85.0761 330.342 84.6165 328.126 84.6165H313.284L323.503 75.6956L317.339 106.594ZM348.491 126.626L384.661 69.8565H403.476L416.939 126.626H397.88L388.716 78.6963H396.177L368.685 126.626H348.491ZM365.197 116.732L372.821 102.945H398.935L401.043 116.732H365.197ZM419.993 126.626L431.347 69.8565H447.08L468.41 104.405H461.759L468.653 69.8565H487.306L475.952 126.626H460.219L438.889 92.0777H445.54L438.646 126.626H419.993Z" fill="#0C112E"/>
<rect x="87.4351" y="114.046" width="83.6336" height="7.60305" rx="3.80152" transform="rotate(-180 87.4351 114.046)" fill="#0C112E"/>
<rect x="91.2366" y="98.8397" width="49.4198" height="7.60305" rx="3.80152" transform="rotate(-180 91.2366 98.8397)" fill="#F8D771"/>
<rect x="95.0382" y="83.6336" width="79.8321" height="7.60305" rx="3.80152" transform="rotate(-180 95.0382 83.6336)" fill="#F2F2F2"/>
</svg>
